<svg id="인쇄" xmlns="http://www.w3.org/2000/svg" viewBox="0 0 262.22 96.24"><defs><style>.cls-1{fill:#f7f8f8;stroke:#231815;stroke-miterlimit:10;}.cls-2{fill:none;}</style></defs><path class="cls-1" d="M56.44,28.73c-.09-.35-.31-.68,0-1,.06-.07,0-.25,0-.37-.07-.42-.37-1.77-.45-2.14a6.09,6.09,0,0,1,.1-3.61c.15-.38.09-.84.24-1.22a34.67,34.67,0,0,1,3.1-6.4,26.74,26.74,0,0,1,2.33-3A11.11,11.11,0,0,1,64.62,9c.15-.09.29-.2.53-.36,0,.42.32.68-.36.86-.46.13-.78.77-1.17,1.17-.22.23-.47.45-.7.67a.53.53,0,0,0-.18.39,5.45,5.45,0,0,0,1.89-.91,6.29,6.29,0,0,1,1.11-1.14A2.64,2.64,0,0,0,65.55,9c.2-.51.8-.14,1.2-.33.22-.11.52-.12.69-.27a1,1,0,0,1,.86-.34,17.06,17.06,0,0,0,2.35-.26,3.12,3.12,0,0,1,1.06,0c.12,0,.27.39.23.55-.26,1.14-.12,1.38,1,1.64.33.07.7.18.44.79a7,7,0,0,0,1-.39.5.5,0,0,0,0-.46,1,1,0,0,1-.05-1.18c.51.34,1.18.39,1.45,1.05a1.4,1.4,0,0,0,.37.4c.75.76,1.56,1.47,2.23,2.28a6.35,6.35,0,0,1,.66,1.55c.17.4.34.79.52,1.18.3.62.65,1.22.91,1.85a18.8,18.8,0,0,1,.76,2.14,29,29,0,0,1,.68,2.9c.21,1.22.33,2.46.48,3.69a.69.69,0,0,1,0,.38,1.21,1.21,0,0,0,.08,1.55.22.22,0,0,1,0,.21c-.45.94.09,1.86,0,2.83l-.32,0,.66,2.62a46.07,46.07,0,0,0,2.55-6l.22,0c0,.3,0,.6,0,.9a1.72,1.72,0,0,0,.17.48,2.73,2.73,0,0,0,.34-.34c.06-.1,0-.26.1-.36.35-.49.24-.85-.27-1.07a2.88,2.88,0,0,1,1.48-2.75c.12-.08.29-.23.29-.34a2,2,0,0,1,.61-1.3c.76-1.06,1.46-2.17,2.29-3.18s1.71-1.85,2.58-2.75c1.28-1.32,2.56-2.64,3.86-3.93A4.1,4.1,0,0,1,98,12.3a3.13,3.13,0,0,0,.85-.61A9.44,9.44,0,0,1,100.67,10c.67-.48,1.56-.68,2-1.46,0-.06.11-.14.16-.13.8.1,1.26-.65,2-.8.38-.09.48-.07.53.3s.18.52.59.24c-.08-.1-.22-.18-.23-.27s0-.49.05-.54a16.71,16.71,0,0,1,1.68-.73,2.64,2.64,0,0,1,.69-.14,1.61,1.61,0,0,1,.43.07c0,.15,0,.36-.15.43a1.16,1.16,0,0,1-.69.24c-.76-.11-1.09.41-1.48.94.62,0,1.11.49,1.8.25a3.06,3.06,0,0,1,1.35,0,3,3,0,0,0,2.33-.65c.25-.19.79-.06,1.18,0a14.63,14.63,0,0,1,2.45.61c1,.36,2.05.6,2.52,1.75a25.41,25.41,0,0,0,1.2,2.39.6.6,0,0,0,.49.24,3.1,3.1,0,0,0,.87-.3c1.17-.54,2.3-1.17,3.5-1.63s2.6-.83,3.9-1.24c.48-.15.94-.36,1.43-.49,2.57-.65,5.13-1.33,7.72-1.9a34.14,34.14,0,0,1,3.52-.4,2.69,2.69,0,0,0,.46-.14,2,2,0,0,1,1.73-.16c.15.08.42,0,.62-.12.72-.26,1.21-.16,1.5.21l2.2-.51a.24.24,0,0,1,.19.08,1.08,1.08,0,0,1,.12.24l-1,.61c.52.49,1,.37,1.2-.22a1.07,1.07,0,0,1,1.07-.58c.64.2,1.25.47,2,.74l-.35.4c-.37-.22-.68-.42-1-.58-.56-.26-1,.12-1.42.35-.05,0,0,.32.07.43a4.19,4.19,0,0,0,.56.54c-.82.36-1.5-.79-2.29,0a3.84,3.84,0,0,0,2.5.35c.45-.06.82-.07,1.08.4a.47.47,0,0,0,.46.12c.39-.2.7-.22.89.26a1.57,1.57,0,0,0,.39-.19c.34-.34.54-.19.85.1a9,9,0,0,0,1.45,1.07c.27.19.69.24.51.74,0,.06.05.17.09.24a11.47,11.47,0,0,1,.8,1.4,4.12,4.12,0,0,1,.22,1.26c0,.74,0,1.49.09,2.23a9.05,9.05,0,0,1-.68,3.44c0,.12-.2.2-.29.31s-.3.31-.28.44c.05.53-.29.83-.53,1.21s-.53,1.07-.82,1.59c-.4.75-.84,1.48-1.27,2.22-.24.4-.51.79-.77,1.19-.9,1.32-1.77,2.65-2.7,3.95-.7,1-1.47,1.87-2.21,2.81-.46.58-.91,1.18-1.37,1.76s-.87,1.09-1.32,1.64a4.19,4.19,0,0,0-.39.45A8,8,0,0,1,141.11,39c-.33.31-.49.78-.8,1.13-.7.81-1.52,1.53-2.14,2.4-.32.44-1,.51-1,1.2,0,.09-.23.15-.32.25a7.49,7.49,0,0,1-1.56,1.41,4,4,0,0,0-1,1,6.42,6.42,0,0,0-.86,1.35c-.13.29-.25.47-.56.5-.07,0-.19,0-.21,0-.33.63-.93,1-1.26,1.69a7.46,7.46,0,0,1-.77,1c-.07.08-.24.11-.26.19-.13.73-.82,1.32-.6,2.13.14.48.34.95.52,1.42a5.38,5.38,0,0,1,.27.66,20.59,20.59,0,0,0,2.08,4.76c.15.26.39.47.57.72a2,2,0,0,1,.32.56,2,2,0,0,0,1,1.32,1.52,1.52,0,0,1,.33.34A17.49,17.49,0,0,0,136,64.54c.54.56,1.21,1,1.69,1.6.28.36.47.64,1,.55l0,0,2.4,1.71c.1.07.21.2.31.19a.9.9,0,0,1,.87.54.46.46,0,0,0,.35.16c.68,0,.77.07.7.74.65.25,1.32.48,1.95.77.17.08.25.34.39.43s.49.26.73.41c.09,0,.15.19.23.21.53.08,1.06.15,1.59.2.29,0,.44-.1.43-.41,0-1.2-.05-2.4-.07-3.6,0-.11,0-.22,0-.33l.09-4.11c0-2,0-4.09.11-6.11a30.19,30.19,0,0,1,.84-6.69,7.34,7.34,0,0,0,.09-.82c.11-.62.24-1.24.36-1.86.22-1.07.42-2.14.65-3.2.14-.6.31-1.19.47-1.79a1.84,1.84,0,0,0,.09-.25c.28-1.64.51-3.3.85-4.93.26-1.24.66-2.45,1-3.67a14.35,14.35,0,0,1,.49-1.39c.2-.5.46-1,.68-1.47s.29-.73.45-1.09.21-.65.64-.81c.27-.1.42-.51.63-.78.39.53.3.94-.26,1.19a.49.49,0,0,0,0,.88,2.2,2.2,0,0,0,.78.39c.34.08.71.05.75.53.2,0,.52,0,.56-.08.27-.6.48-1.24.71-1.86a1.27,1.27,0,0,1,.23-.43,1.14,1.14,0,0,0,.44-1c0-.14.23-.31.35-.47l.3.42.25.32c.08-.33.15-.56.19-.79a1.45,1.45,0,0,0,0-.58c-.08-.42-.37-1.74-.44-2.13a6.43,6.43,0,0,1,.13-3.61c.14-.35.06-.78.2-1.13A35.42,35.42,0,0,1,163.27,14a26.18,26.18,0,0,1,2.4-3,18.21,18.21,0,0,1,3.24-2.34c.15.43.3.61-.25.83a2,2,0,0,0-1.26,1.22c-.08.25-.42.43-.64.64a.57.57,0,0,0-.21.41l1.93-.89c.06,0,.15-.09.15-.13,0-.5.24-.73.72-.83.07,0,.1-.37.11-.56s-.1-.29-.06-.32a1,1,0,0,1,.45-.25,1.19,1.19,0,0,1,.46,0,1.35,1.35,0,0,0,1.26-.64.28.28,0,0,1,.18-.12c.61,0,1.23,0,1.85-.07.29,0,.57-.09.85-.1a4.34,4.34,0,0,1,1,0c.3.06.43.25.28.61-.36.88,0,1.41.9,1.59.36.07.79.12.53.88a8.41,8.41,0,0,0,1.07-.5c.05,0,0-.35-.08-.47a1,1,0,0,1,0-1.11c.56.34,1.23.44,1.49,1.13.06.14.23.23.35.35.7.69,1.44,1.37,2.11,2.1a5,5,0,0,1,.85,1.95c.34.93.94,1.76,1.27,2.68s1,1.84.88,2.95c0,.29.25.6.31.91.16.78.3,1.56.42,2.35s.22,1.57.32,2.36a1,1,0,0,1,0,.49c-.22.59-.43,1.16.13,1.7,0,0,0,.11,0,.15-.52.95,0,1.86.11,2.78,0,0,0,.06-.05.13l-.53-.14a2.16,2.16,0,0,0,.21.65c.7.81.37,1.7.18,2.56,0,.13-.27.22-.5.4l.82.25c-.4.35-.6.7-.24,1.15.06.06,0,.21,0,.31a14.44,14.44,0,0,1-.21,1.49,2.84,2.84,0,0,1-.52.73l.65.26c-.18.16-.3.35-.47.42-.32.13-.61.27-.45.65.08.18.36.28.63.47-.22.26-.52.59-.78.94s-.58.73,0,1.07c.06,0,0,.37-.06.5-.23.36-.5.68-.26,1.14a.34.34,0,0,1,0,.31c-.32.31-.24.53.2.71-.26.4-1.3.71-.16,1.21-.23.5-.47,1-.68,1.45a3.06,3.06,0,0,0-.3,1c0,.18.23.37.42.67a5.48,5.48,0,0,1-.2,1c-.06.15-.32.26-.5.34s-.42.33-.15.52a1.17,1.17,0,0,1,.21,1.57c-.51.81-.29,1.77-.72,2.58-.08.15.11.46.21.8a1.94,1.94,0,0,0-.43.37c-.18.27-.3.57.17.72.1,0,.24.17.23.24a.64.64,0,0,1-.23.32c-.26.24-.54.47-.9.78l.7.33c-.1.15-.16.35-.29.42-1,.48-1,1.54-1.4,2.37-.08.17.16.49.27.78a1.32,1.32,0,0,0-1,1.41c0,.18-.25.37-.36.57-.56,1-1.13,2.06-1.67,3.1s-1,2-1.46,3a1.43,1.43,0,0,0,0,.59,1.32,1.32,0,0,0-.76,1,13.23,13.23,0,0,1-.87,2c-.08.17-.24.34-.25.52a2,2,0,0,1-.76,1.4,2,2,0,0,0-.76,1.56c0,.11-.21.22-.33.33s-.35.28-.5.45a2.53,2.53,0,0,0-.78,1.38l.16.1a3.46,3.46,0,0,1-.53.35c-.28.12-.49.23-.37.6,0,.11-.09.3-.19.41a2.27,2.27,0,0,1-.59.57c-.58.29-.72.88-1.06,1.34-.06.09-.13.22-.21.24-.63.15-1,.47-.74,1.16,0,.06-.1.23-.17.24-.77.12-1,.91-1.5,1.28a18,18,0,0,1-2.41,1.83c-.4.18-.71.53-1.1.74-1.1.59-2.21,1.15-3.33,1.71a4.48,4.48,0,0,1-2.68.27,6,6,0,0,1-3.75-1.84A23,23,0,0,1,151.54,86a7.3,7.3,0,0,1-.85-1.52c-.48-1.23-1-2.47-1.32-3.74a9.77,9.77,0,0,1-.14-2.11c0-1.16-.34-1.73-1.57-1.1a6,6,0,0,1-4.06.22c-1.14-.24-2.26-.54-3.38-.86a22.23,22.23,0,0,1-3-1,22.84,22.84,0,0,1-3.74-2.1,14.41,14.41,0,0,0-1.92-1,5.77,5.77,0,0,1-1-.86c-.08-.07-.12-.21-.2-.25a9.47,9.47,0,0,1-2.77-2.69,4.79,4.79,0,0,0-.67-.52c-.07,1.29-.14,2.38-.17,3.48,0,.77,0,1.53,0,2.3a4,4,0,0,1-.14.46,5.61,5.61,0,0,0-.14.9c0,.42.06.84,0,1.25,0,1.55,0,3.1-.14,4.65s-.32,3-.59,4.5a9.34,9.34,0,0,1-.79,2.26c-.7,1.44-2,1.64-3.34,1.21-.62-.19-.78-.84-1.11-1.35a9.71,9.71,0,0,1-.87-2.6,22.81,22.81,0,0,1-.61-3,13.52,13.52,0,0,1-.16-1.41,41.64,41.64,0,0,0-.78-4.73c-.09-.56-.14-1.12-.19-1.68-.08-1.13-.1-2.25-.24-3.37a4.26,4.26,0,0,1,.07-1.81c.1-.34-.15-.79-.25-1.2,0-.07-.1-.15-.08-.19.37-.8-.22-1.6,0-2.39a1.12,1.12,0,0,0,0-.32c0-1.19-.07-2.38-.05-3.57s.07-2.37.15-3.55c0-.84.17-1.67.25-2.51,0-.16,0-.32,0-.49a6.66,6.66,0,0,1,.06-.76c0-.12.07-.24.08-.37,0-1.56,0-3.12,0-4.68.06-1.36.25-2.72.37-4.07.16-1.76.27-3.52.44-5.28.1-.94.23-1.88.41-2.81.24-1.24.55-2.48.8-3.73.19-1,.31-2,.51-2.94s.48-2.2.73-3.3c.19-.86.35-1.74.59-2.59a21.56,21.56,0,0,1,2.46-5.93c.09-.15.29-.22.39-.37a3.11,3.11,0,0,0,.25-.52c-.2,0-.43-.12-.6-.05-.41.16-.78.42-1.19.58-.18.07-.44-.09-.61,0-1.26.48-2.51,1-3.76,1.5a.66.66,0,0,0-.35.25c-.34.8-.66,1.61-1,2.42-.24.58-.51,1.15-.74,1.74a6.66,6.66,0,0,1-.43,1.21c-.44.67-1,1.29-1.47,1.93a10.31,10.31,0,0,1-1,1.18c-.28.26-.69.38-1,.63a6.58,6.58,0,0,1-2.93,1.59c-.89.19-1.22.07-1.1-.92.07-.62,0-1.24.09-1.86s.14-1.36.23-2,.18-1.1.28-1.65c.07-.38-.2-.42-.45-.48-.85-.21-1-.91-.49-1.6a13.43,13.43,0,0,0,1-1.66,10.28,10.28,0,0,0,.87-1.76A2.18,2.18,0,0,0,110,16.7a.44.44,0,0,1-.12-.28c.07-.56-.31-.75-.73-.85a2.54,2.54,0,0,0-2.54.54,13.69,13.69,0,0,1-1.32.87,5.4,5.4,0,0,0-1,.82c-.29.34-.46.79-1,.89-.07,0-.19.11-.19.17,0,.67-.4.66-.91.63.07.56-.24.64-.67.53s-.42,0-.46.42a1.69,1.69,0,0,1-.59.88c-.38.35-.86.58-1.24.91a7.44,7.44,0,0,0-.83.94s-.15.14-.13.16c.39.63-.44.71-.48,1.06-.08.66-.91,1-.71,1.74,0,.12-.35.34-.56.53l-.45-.51-.16.06.2,1.07a2,2,0,0,1-.42-.05c-.63-.2-1.08.14-.92.78a.78.78,0,0,1-.33.92,9,9,0,0,0-1.11,1,1.52,1.52,0,0,0-.22.69c-.08.32-.09.66-.2,1a10.4,10.4,0,0,1-.87,2.3c-.39.61,0,1.29-.43,1.87a17.24,17.24,0,0,0-1,1.79s-.08.09-.09.13A5.62,5.62,0,0,1,90,40a4.2,4.2,0,0,0-.26,1.15c-.34,1.47-.61,2.92.3,4.31a1.44,1.44,0,0,0,1.55.58c.53-.17,1.08-.29,1.62-.44.72-.2,1.43-.42,2.15-.61.9-.25,1.8-.5,2.72-.7s2-.39,2.94-.57c.46-.08.92-.13,1.39-.17.78-.06,1.56-.12,2.33-.14.32,0,.64.1,1,.13a3.89,3.89,0,0,0,.47,0,5.46,5.46,0,0,1,1.44-.1c.61.13,0,.41,0,.8l.76-.49c.47.69,1.26.34,1.9.55.44.15.91.23,1.33.41a6.39,6.39,0,0,1,2.75,1.79,5.4,5.4,0,0,1,.72,1,3.86,3.86,0,0,0,.83,1.29c.2.2.21.64.26,1a12,12,0,0,1,.25,2.21c-.07,1.17-.3,2.33-.47,3.5-.08.55-.18,1.1-.27,1.65s-.18,1.31-.3,2c0,.23-.23.42-.27.64-.17.81-.27,1.62-.46,2.41a6.47,6.47,0,0,1-.53,1.17c-.06.11-.21.2-.21.3a1.22,1.22,0,0,1-.75,1.17c-.08,0-.12.26-.11.39.07.66.1,1.29-.65,1.59.14.84.09.92-.72,1.1a1.78,1.78,0,0,0-.5.19.39.39,0,0,0-.19.3c0,.08.16.15.25.22s.21.16.31.24c-.12.12-.22.31-.36.35-.3.07-.66.36-.93-.23l-.28.37,1.08.93a3.6,3.6,0,0,0-1.05.47c-.16.17-.12.54-.19.91l-1.23.85.57.49a1.87,1.87,0,0,1-.47.08c-.47-.12-.64.12-.57.52s0,.49-.4.5c-.53,0-.53.46-.64.82,0,.16-.09.42-.19.45-.46.15-.56.57-.81.9-.48.64-1,1.21-1.56,1.81-.15.16-.36.34-.38.52-.05.69-.55,1-1,1.39a10.76,10.76,0,0,0-1.47,1.19c-.61.71-1.52.92-2.23,1.48s-1.66.83-2.41,1.36c-1.56,1.11-3.4,1-5.14,1.24a26.66,26.66,0,0,1-3.35.13,1.43,1.43,0,0,1-.54-.09c-.81-.32-1.62-.61-2.41-1s-.92-1.06-1.2-1.7a9.44,9.44,0,0,1-.92-4.62c.07-.81.16-1.62.23-2.43a28,28,0,0,1,1.7-5.8,13.87,13.87,0,0,1,1.5-3.44,12.13,12.13,0,0,1,4-4.08,4.05,4.05,0,0,1,1.54-.25.59.59,0,0,1,.17.45,31.18,31.18,0,0,1-1.42,3.37,17,17,0,0,0-1.9,4.38,6.85,6.85,0,0,0-.13,3.57c.16.54.14,1.15.34,1.67.38,1,.86,1.18,1.92,1a7.5,7.5,0,0,0,3.74-2,7.29,7.29,0,0,0,.92-1.14c.63-.82,1.27-1.64,1.87-2.49.72-1,1.36-2.11,2.12-3.1.58-.74,1.29-1.37,1.94-2a5.85,5.85,0,0,0,.45-.54c.55-.72,1.13-1.42,1.63-2.17a9,9,0,0,0,.8-1.54c.52-1.21,1-2.43,1.51-3.64.08-.18.22-.33.31-.51.2-.4.39-.79.55-1.2s.19-.67.32-1c.34-.84.73-1.66,1.07-2.5s.17-1.15-.48-1.47a9,9,0,0,0-2.4-.9,7.53,7.53,0,0,0-2.17.28,5.78,5.78,0,0,0-1.37.3c-1.22.52-2.41,1.1-3.62,1.65l-1,.46a5.36,5.36,0,0,0-.53.28,15.65,15.65,0,0,1-1.55,1,10.82,10.82,0,0,1-1.68.6,15.17,15.17,0,0,1-4.68.61c-1.15,0-2.29-.14-3.43-.21a2.7,2.7,0,0,1-1.66-1,2.92,2.92,0,0,0-.89-.64,2.12,2.12,0,0,1-1.15-1.11c-.28-.57-.62-1.1-.91-1.67-.15-.3-.24-.63-.38-.93a1.09,1.09,0,0,0-.21-.27c-.07.09-.19.18-.18.27,0,.42-.16.59-.54.67s-.38.32-.15.49a1.15,1.15,0,0,1,.21,1.6c-.49.82-.26,1.78-.71,2.58-.08.14.13.45.22.72a2.62,2.62,0,0,0-.45.44c-.17.25-.28.53.14.7s.35.37,0,.57a1.77,1.77,0,0,0-.33.19c-.48.41-.45.66.18.94-.14.15-.23.35-.39.44-.94.52-1,1.56-1.35,2.39-.07.15.18.44.31.72a.63.63,0,0,0-.29.13c-.24.25-.6.49-.67.8a10.71,10.71,0,0,1-1.27,2.77c-.56,1.08-1.1,2.16-1.65,3.24-.13.26-.3.5-.42.76s-.19.58-.32,1c-.34.12-.51.49-.65,1a15.53,15.53,0,0,1-.92,2c-.08.17-.14.33-.22.49a5.83,5.83,0,0,1-.69,1.31,2.63,2.63,0,0,0-.83,1.6c0,.11-.1.3-.16.31-.84.11-.76,1.07-1.34,1.43-.08,0,0,.35,0,.63a4.1,4.1,0,0,1-.46.28c-.28.12-.46.26-.38.62a.46.46,0,0,1-.14.37,2.66,2.66,0,0,1-.67.63,2.54,2.54,0,0,0-.88,1.12,1.64,1.64,0,0,1-.75.56c-.35.16-.49.33-.37.71,0,.16,0,.5-.1.52-.83.2-1.08,1-1.7,1.48S61.17,87,60.43,87.52c-.39.28-.78.56-1.19.81-.63.38-1.28.72-1.93,1.09a6.33,6.33,0,0,1-8-1.21,14.15,14.15,0,0,1-2.44-3.84,23.45,23.45,0,0,1-1.28-3.58,11.78,11.78,0,0,1-.16-1.9c-.16-1.63-.37-3.25-.5-4.88-.09-1-.06-2.06-.09-3.1s-.07-1.85-.09-2.78c0-1.14-.07-2.27-.06-3.41s0-2.5.06-3.75,0-2.66.11-4c0-.42.18-.83.22-1.26-.69.93-.35,2-.5,3.06s-.18,2-.36,3c-.15.79-.47,1.55-.68,2.34a7.3,7.3,0,0,0-.08,1c-.06.36-.15.72-.23,1.07s-.11.42-.17.62-.21.65-.28,1c-.14.62-.26,1.23-.39,1.85,0,.16,0,.37-.13.46-.73.72-.72,1.76-1.17,2.61a31.09,31.09,0,0,0-1.63,3.74,10.12,10.12,0,0,0-.18,1.49c-.19,1-.44,1.91-.66,2.86-.09.39-.13.79-.22,1.18a19.49,19.49,0,0,0-.49,1.93c-.1.77,0,1.56-.1,2.34s-.15,1.28-.21,1.93c0,.39,0,.79-.06,1.18a5.82,5.82,0,0,1-.69,3.51,5.91,5.91,0,0,0-.5,1.48,3.51,3.51,0,0,1-.16-.66c0-.71-.55-1.11-.92-1.6a6.37,6.37,0,0,1-1.07-3.1c-.09-.64-.32-1.26-.42-1.9-.14-.89-.22-1.79-.33-2.68-.07-.6-.16-1.19-.23-1.78,0-.33,0-.67-.07-1a1.61,1.61,0,0,0-.1-.36,1.21,1.21,0,0,1-.12-.35c0-.73,0-1.46,0-2.19a1,1,0,0,0-.09-.46.87.87,0,0,1,0-1,.77.77,0,0,0,0-.48c0-.66-.13-1.32-.16-2a19.61,19.61,0,0,1,0-2.3A11.06,11.06,0,0,1,33,70.83c.09-.37.15-.75.23-1.12L33,69.62c-.2.44-.42.88-.6,1.33a11.66,11.66,0,0,1-2,3.86A3.51,3.51,0,0,0,29.37,77a1.65,1.65,0,0,1-.26.65,29.18,29.18,0,0,1-1.54,3,17.5,17.5,0,0,0-1.63,3c-.14.27-.11.63-.25.89-.42.76-.91,1.48-1.35,2.23C23.65,87.83,23,89,22.29,90.09a12.56,12.56,0,0,1-1.24,1.49,7.48,7.48,0,0,1-.89.89c-.41.34-.87.62-1.31.93,0,0-.12,0-.15.06-.44.56-1.08.55-1.7.7a9,9,0,0,0-1.44.69c-1.15.52-2.29,1.13-3.63.8a3.27,3.27,0,0,1-.65-.26,12.4,12.4,0,0,1-1.44-.77,4.26,4.26,0,0,1-.68-.76c-.34.37-.56,0-.8-.28-.51-.72-1-1.43-1.54-2.14a.69.69,0,0,1-.14-.3A5.57,5.57,0,0,0,5.55,89a.76.76,0,0,1-.17-.39,1.23,1.23,0,0,0-.56-1.11.46.46,0,0,1-.15-.23C4.09,85.7,3.51,84.16,3,82.62a3.75,3.75,0,0,1-.5-1.68,3.34,3.34,0,0,0-.51-2c-.44-.88-.05-1.8-.46-2.64-.17-.34,0-.85,0-1.28,0,0,0,0,0,0,.08-.65.16-1.3.24-2-.65-.28-.71-.43-.24-.86l.34.44a1.33,1.33,0,0,0,0-.38c-.23-.8-.49-1.59-.7-2.39-.08-.31-.32-.66.19-.93.33-.18.2-.67-.24-.92-.23-.13-.4-.22-.29-.54s.27-.93.44-1.5l-.65.18c.07-.59.14-1.1.2-1.6a1.1,1.1,0,0,0,0-.48c-.18-.4-.32-.76.24-1,0,0,0-.33-.12-.39a.73.73,0,0,1-.25-1.1.71.71,0,0,0-.07-1.06.66.66,0,0,1-.07-.57c.17-.48.33-.94,0-1.26.13-.33.23-.57.31-.81A5.45,5.45,0,0,1,1,57.23a.92.92,0,0,0-.12-.83,2.73,2.73,0,0,1,0-1.23c.1-.89.21-1.77.33-2.66,0-.15.13-.3.16-.45.08-.49.13-1,.21-1.48s.14-.75.24-1.11.27-.48.28-.72a7.28,7.28,0,0,1,.61-3.12.5.5,0,0,0,0-.32c-.32-.87.1-1.72.12-2.58,0-.37.11-.74.09-1.15a6.83,6.83,0,0,1,.42-1.64c.12-.54.19-1.1.29-1.65a.83.83,0,0,1,.13-.46,1.68,1.68,0,0,0,.39-1.51,3.12,3.12,0,0,1,.3-1.19c.28-1,.54-2,.87-3a24.31,24.31,0,0,0,1-2.84c.18-.92.88-1.64.82-2.65a1,1,0,0,1,.59-1.07c.14-.05.24-.4.23-.6a3.94,3.94,0,0,1,.45-2.1c.32-.61.52-1.29.81-1.92.45-1,1-1.95,1.38-2.95a7,7,0,0,1,1.45-2.42.18.18,0,0,0,.06-.09A4.16,4.16,0,0,1,14,13.2c.49-.42.84-1,1.33-1.44a11.05,11.05,0,0,1,1.34-.88,10,10,0,0,0,1.51-1.12,4.72,4.72,0,0,1,2.41-1.44c.52-.12,1-.37,1.52-.51.71-.19,1.42-.36,2.15-.51a10.6,10.6,0,0,1,1.6-.2c.62,0,1.25,0,1.87,0l.77,0,.53.06,1.66.25a3.89,3.89,0,0,1,.49.12c.34.12.69.36,1,.32a1.1,1.1,0,0,1,1,.34.72.72,0,0,0,.39.19c1.55.18,2.15,1.49,3,2.53.26.32.15.67-.32.78-.28.06-.57.11-.85.15l-2.53.28c-.23,0-.47,0-.74,0l.12-.49c-.17,0-.37.05-.38.1-.11.46-.49.44-.83.47a2.84,2.84,0,0,1-.92,0c-2-.46-3.47.4-4.7,1.94a36.93,36.93,0,0,1-3.91,4.55,2.27,2.27,0,0,0-.4.79c-.14.3-.24.61-.38.9-.5,1.07-1,2.13-1.53,3.19a5.66,5.66,0,0,1-.47.73c-.06.09-.16.16-.19.26-.2.67-.34,1.36-.58,2s-.58,1.34-.85,2a4.44,4.44,0,0,0-.15.63c-.17.81-.34,1.62-.52,2.43-.06.23-.19.44-.26.66-.38,1.29-.78,2.58-1.13,3.88-.26,1-.45,2-.68,3a.84.84,0,0,1-.09.37c-.52.67-.4,1.49-.58,2.25-.12.54-.42,1-.55,1.58-.2.89-.36,1.81-.49,2.72-.11.75-.14,1.52-.23,2.28-.14,1.09-.26,2.18-.46,3.26s-.51,2.3-.77,3.45a3.2,3.2,0,0,0-.13.58c-.11,1.89-.22,3.77-.3,5.65a11.86,11.86,0,0,0,.14,1.18c0,.4,0,.79,0,1.19,0,.68,0,1.36,0,2a3.13,3.13,0,0,1,0,.43c0,.82-.15,1.63-.12,2.44,0,.6.24,1.2.32,1.81,0,.33-.06.68,0,1,0,.56.09,1.12.13,1.67a3.14,3.14,0,0,1,0,.92,2.1,2.1,0,0,0,.23,1.68,1.33,1.33,0,0,1,.14.78,4.79,4.79,0,0,0,.5,2.86,2,2,0,0,1,.18.46,18.19,18.19,0,0,0,.44,2.1c.34,1,.8,1.93,1.22,2.9,0,.1.07.2.12.3l.24.5a2.24,2.24,0,0,0,.43-.31c.5-.54,1-1.08,1.49-1.66.25-.32.37-.75.64-1.07.82-1,1.47-2.06,2.19-3.09s1.17-1.84,1.78-2.73,1.11-2.12,1.7-3.16,1.2-2,1.8-3c.17-.29.36-.58.51-.89A12.83,12.83,0,0,1,26.69,66a.54.54,0,0,0,.15-.23,8.75,8.75,0,0,1,1.59-3.22,21.11,21.11,0,0,0,2.28-4.24c0-.12.09-.27.19-.32.58-.32.3-.86.26-1.27,0-.12-.61-.27-.93-.25-.69.05-1.37.22-2.06.3-1,.12-2,.17-3,.31-.43.06-.92-.07-1.29.36-.09.1-.45-.06-.68,0a3.37,3.37,0,0,0-1.15.08c-.77.29-1.13.12-1.19-.72l-.38.2c-.05,0-.1.09-.14.08s-.37,0-.46-.09c-.35-.38-1.46,0-1.08-1.13A2.87,2.87,0,0,1,21,54c.25,0,.6-.66.47-1s0-.49.26-.59c1-.33,1.95-.66,2.94-1,.73-.23,1.46-.45,2.2-.63.92-.23,1.84-.42,2.77-.61,1.22-.25,2.45-.54,3.68-.74s2.41-.32,3.61-.48c.37,0,.73-.11,1.09-.12s.79,0,1.19,0a4.26,4.26,0,0,0,.8-.09c.34-.08.7-.34.8.29,0,.07.34.1.52.15l.06-.16L41,48.78c.06,0,.1-.08.14-.07l1.2.23c.33.05.45.21.3.53-.06.11-.14.21-.29.44,1.14-.16,1.2,1,1.87,1.36.9.51.44,1.5.89,2.26.13-.47.26-.94.38-1.41.4-1.48.26-3.06.89-4.53A12.47,12.47,0,0,0,46.84,45c.12-.6.3-1.19.46-1.78,0-.12.1-.24.12-.36.21-1.14.43-2.28.63-3.42s.31-2,.52-3a17.85,17.85,0,0,1,.6-1.88c.23-.67.45-1.34.71-2,.14-.36.34-.68.5-1s.35-.79.53-1.17.21-.65.64-.81c.26-.1.41-.52.61-.8.38.65.31.9-.33,1.24a.39.39,0,0,0-.11.68,3.31,3.31,0,0,0,1,.59c.26.09.5.08.6.43a.33.33,0,0,0,.62,0c.25-.57.44-1.17.67-1.75a1.37,1.37,0,0,1,.22-.49c.29-.31.58-.58.47-1.09,0-.11.25-.28.38-.43.09.14.26.27.25.4,0,.43.3.33.52.4-.18.6.24,1.24-.17,1.85-.08.11.2.66.38.71.37.09.43-.27.42-.59a5.09,5.09,0,0,1,0-.55A1.83,1.83,0,0,0,56.44,28.73Zm94.32-6.07.44,0c.05-.32.08-.54.12-.77s.06-.32.09-.47c-.14,0-.34-.07-.39,0s-.26.42-.2.49c.25.31.06.54,0,.8L150,23.84l.17.1A1.68,1.68,0,0,0,150.76,22.66Zm7,35.2c.09.26.31.6.23.69a1.67,1.67,0,0,0-.4,1.48c.07.32-.27.73.08,1.1a.45.45,0,0,1,0,.31c-.09.63-.2,1.26-.28,1.89a1.38,1.38,0,0,0,.07.64,4.79,4.79,0,0,1,.14,2.16c0,.72-.46,1.41-.09,2.15.05.1-.07.33-.18.45s-.25.41,0,.58.22.37.07.6-.18.22-.17.32a12.6,12.6,0,0,0,.16,2c.08.35.29.62,0,1a.46.46,0,0,0,.13.42c.64.36.42.71,0,1.11-.21.22-.37.58,0,.73.54.21.49.5.3.9,0,.11-.13.29-.08.36a2,2,0,0,1,.18,1.41,4.94,4.94,0,0,0,.25,1.63c.07.39.23.86.68.77a2.76,2.76,0,0,0,1.36-.66,24.15,24.15,0,0,0,1.7-2.06c.62-.75,1.28-1.48,1.87-2.25.81-1,1.58-2.12,2.36-3.18a21.56,21.56,0,0,0,1.68-2.28c.59-1,1-2.16,1.54-3.24.7-1.44,1.44-2.85,2.14-4.29.4-.83.82-1.67,1.14-2.54.61-1.64,1.15-3.3,1.73-5,.33-.93.73-1.83,1-2.78a21.15,21.15,0,0,0,1-4.73,4.11,4.11,0,0,1,.08-.6c.26-1.28.56-2.55.77-3.84s.33-2.73.49-4.09c0-.17.08-.32.1-.49.17-1.18.37-2.37.5-3.56s.19-2.46.29-3.69c.07-.88.23-1.77.24-2.66,0-1.41-.08-2.83-.14-4.24a6.34,6.34,0,0,0-.14-1.51A19,19,0,0,0,177,18.42c-.75-1.25-1.58-2.36-3.22-2.41-.12,0-.25-.08-.37-.08a9.22,9.22,0,0,0-2,.11c-1.46.38-2.25,1.57-3,2.74-.13.21-.18.47-.31.69-.56.94-1.17,1.86-1.67,2.83-.26.52-.3,1.15-.51,1.71a4.37,4.37,0,0,0-.51,2.38.41.41,0,0,1,0,.22c-.38,1.19.11,2.39,0,3.58,0,.59.11,1.19.07,1.78-.09,1.31-.22,2.61-.36,3.91s-.29,2.39-.44,3.58a2.54,2.54,0,0,1-.26.45l-2.49-5.66h-.24c-.18.48-.36,1-.56,1.44s-.16,1.42-.85,1.88c-.12.08-.12.43-.08.64.09.46.29.91-.18,1.3a.36.36,0,0,0,0,.35,7.47,7.47,0,0,0,.55.68c-.19.13-.4.38-.66.44-.53.13-.59.19-.34.66l.51-.06a2.13,2.13,0,0,1,0,.56c-.06.32-.18.65.23.78s.32.28.19.53a6,6,0,0,0-.57,1.1,10.41,10.41,0,0,0-.26,1.46l.33.26L158.42,49c-.16.63.09,1.47-.36,2.21-.06.09,0,.24,0,.36s0,.51-.09.76a7.2,7.2,0,0,0-.16.78c0,.17.14.42.06.52-.44.6.39,1.41-.33,2,0,0,.08.19.09.29C157.64,56.56,158.2,57.21,157.74,57.86Zm-104,15c0,.24-.09.72.05.82.61.38.41.67,0,1.07s-.25.58.14.87a.85.85,0,0,1,.23.56c0,.17-.2.38-.15.51a4.32,4.32,0,0,1,.2,1.56,12.18,12.18,0,0,1,.19,1.42c0,.53.37,1,.71.93a2.93,2.93,0,0,0,1.35-.68c1.3-1.5,2.53-3.08,3.77-4.64,1-1.26,2.05-2.5,3-3.82a20.19,20.19,0,0,0,1.47-2.71c1-1.9,1.82-3.85,2.85-5.7A36.87,36.87,0,0,0,70,57.14c.55-1.58,1.14-3.16,1.68-4.74A43.49,43.49,0,0,0,73,46.33c.13-.68.19-1.37.31-2,.25-1.39.52-2.78.77-4.17a1.27,1.27,0,0,0,0-.27c0-.4,0-.8.1-1.19.16-1.17.38-2.33.51-3.51.15-1.37.23-2.74.34-4.12.07-.83.2-1.66.2-2.5,0-1.36-.11-2.72-.17-4.08a5.94,5.94,0,0,0-.07-1.34,20,20,0,0,0-1.82-4.74C72.39,17.15,71.57,16.07,70,16a1.65,1.65,0,0,1-.32-.07,4.22,4.22,0,0,0-2.81.35,3.62,3.62,0,0,0-1.42,1.29c-.59.84-1.19,1.66-1.79,2.5,0,.05,0,.14-.07.2-.16.31-.33.6-.49.91a11.31,11.31,0,0,0-.64,1.25c-.26.69-.46,1.4-.68,2.11a6.57,6.57,0,0,0-.32,1.13,9.17,9.17,0,0,0-.06,1.57A21.09,21.09,0,0,0,61.51,30a20,20,0,0,1-.09,4.45c-.11,1.64-.4,3.25-.62,4.88a2.26,2.26,0,0,1-.15.41h-.19L57.9,33.94c-.26.74-.47,1.36-.7,2a5.06,5.06,0,0,1-.64,1.46.86.86,0,0,0-.24,1,1.11,1.11,0,0,1-.12,1.18c-.1.13.06.5.16.74s.23.14.44.25a2.77,2.77,0,0,1-.82.44c-.61.06-.5.36-.37.74.63-.17.78-.09.62.36s-.1.88.47,1l-1,2.91.4.26c-.33.53-.31,1.17-.85,1.6A2,2,0,0,0,54.6,49c-.15.79.09,1.64-.4,2.38a.14.14,0,0,0,0,.11c.25.4,0,.71-.15,1.06a2.53,2.53,0,0,0-.08.63c-.13.78.31,1.62-.24,2.36-.05.07,0,.23,0,.34.05.69.57,1.36.19,2.08.09.26.22.6.11.79-.22.37-.68.62-.22,1.11-.33.52-.09,1,0,1.55a9.37,9.37,0,0,1-.25,1.93,2.78,2.78,0,0,0,.09.69,10.51,10.51,0,0,1,.14,2,4.63,4.63,0,0,0-.1,2.31c0,.09-.12.26-.18.39a2.51,2.51,0,0,0-.16.43c.53.32.32.64.09,1-.09.17,0,.46.06.69s0,.47,0,.71C53.61,72,53.66,72.36,53.72,72.86Zm74.83-54.4c-.05.31-.12.69-.17,1.08a.57.57,0,0,0,.05.39c0,.06.24.05.35,0,.32-.09.57-.23.53-.64a.87.87,0,0,1,.09-.41c.19-.41.39-.83.61-1.24a.61.61,0,0,1,.28-.29.33.33,0,0,1,.31.12,3.1,3.1,0,0,1,.24,2.06,9.1,9.1,0,0,0-.57,2.48,14.17,14.17,0,0,1-.73,3.49,1.45,1.45,0,0,0-.11.69,1.48,1.48,0,0,1-.3,1.32c0,.08-.13.19-.1.24.28.57-.08,1.11-.05,1.63.06,1.35-.73,2.62-.35,4,0,.16-.1.38-.15.57a11.07,11.07,0,0,0-.33,1.38c-.1.86-.13,1.72-.21,2.58a11.77,11.77,0,0,0,0,3.3,3.08,3.08,0,0,1-.09,1.12c0,.26-.21.5-.25.77a1.38,1.38,0,0,0,.13.54c.15,0,.34,0,.43-.14,1-1.15,2.07-2.29,3-3.51.81-1.06,1.48-2.23,2.24-3.34.6-.86,1.25-1.7,1.87-2.55.15-.21.22-.47.37-.66.67-.83,1.38-1.63,2-2.46,1-1.22,2-2.44,2.9-3.69.49-.65.9-1.36,1.35-2s.9-1.42,1.38-2.11,1-1.33,1.44-2.06a23,23,0,0,0,1.16-2.59,2.77,2.77,0,0,0,.1-.91c0-.67,0-1.34.06-2a1.47,1.47,0,0,0-1.41-1.69c-.37,0-.72-.1-1.09-.11s-.82,0-1.23.05c-.85.09-1.69.2-2.54.31a4,4,0,0,0-1.2.2,2.63,2.63,0,0,1-1.49.11,2.45,2.45,0,0,0-.87.15,6.21,6.21,0,0,1-1.39.4,4,4,0,0,0-1.8.36,2.31,2.31,0,0,1-1.2.26c-.52-.06-.93-.2-1.41.23s-.93.31-1.4.48a.94.94,0,0,0-.36.3,6.88,6.88,0,0,0-.68.95,4.14,4.14,0,0,0-.24.87Zm25.7-6.26.14,0a8.74,8.74,0,0,1-.81-1c-.16-.28-.29-.31-.55-.16a1.15,1.15,0,0,1-1.34-.24,2.16,2.16,0,0,1-.25-.58.51.51,0,0,0-.16.4c0,.2.05.44,0,.58-.31.53.21.91.22,1.38,0,.07.26.17.42.19a5.82,5.82,0,0,0,.59,0c.77.07,1.07.53.77,1.06.09.3.29.63.2.78-.21.35,0,.53.12.78s.17.42.1.53-.33.19-.52.22a1.94,1.94,0,0,1-.6-.09c.18.38.24.78.45.89.46.23,1.53-.84,1.41-1.35l0-.1a6.93,6.93,0,0,1-.16-.91c0-.48,0-1,0-1.46C154.2,12.78,154.23,12.49,154.25,12.2ZM115.94,9.58l-.19.1a4.38,4.38,0,0,0-.39.93,1,1,0,0,0,.24.77,3.17,3.17,0,0,0,1.16.26.41.41,0,0,0,.35-.16c0-.09,0-.26-.13-.37s-.32-.38-.45-.59S116.13,9.89,115.94,9.58Zm29.49,21.36.18.13c.12-.15.23-.29.34-.45a9.46,9.46,0,0,1,1.22-1.69c.66-.6.72-1.41,1-2.13A25.39,25.39,0,0,0,145.43,30.94Zm-43,13.78a6.37,6.37,0,0,0,3.41-.36c-.07-.39-.2-.61-.62-.38a.62.62,0,0,1-.42.06.79.79,0,0,0-.87.3c-.1.1-.39.2-.42.15C103.07,44,102.84,44.45,102.41,44.72ZM25.09,8.5l-.54.09a9.08,9.08,0,0,0-1.4.19c-.52.15-.58.56-.3,1.17l.57-.83C24.39,9.38,24.75,9.25,25.09,8.5ZM160.46,28.67c-.1.23-.15.32-.18.42-.13.51.16,1.06-.2,1.56-.06.08.27.44.42.67.12-.12.33-.21.36-.35A3.57,3.57,0,0,0,160.46,28.67ZM145.79,8.2l0-.27a2.84,2.84,0,0,0-.57-.1c-.7,0-1.41.29-2.07-.16a.34.34,0,0,0-.31,0,2.31,2.31,0,0,0-.34.42,1.19,1.19,0,0,0,.46.18c.68,0,1.36,0,2.05,0A6.63,6.63,0,0,0,145.79,8.2Zm-42,2.18h-.29a2.69,2.69,0,0,0-.65-.06c-.14.53-.59.64-1,.83-.17.08-.23.38-.34.59a1.88,1.88,0,0,0,.41.19c.32,0,.43-.19.47-.48,0-.12.17-.32.24-.31C103.22,11.19,103.41,10.69,103.81,10.38ZM11.28,22.47l.07-.26L10,21.28l-.13.07c.07.37,0,.91.23,1.08S10.89,22.47,11.28,22.47ZM139.88,8.25a11.94,11.94,0,0,1,1,.7c.12.11.14.34.26.47s.23.08.35.12a1.58,1.58,0,0,0,0-.38c0-.27-.11-.54-.17-.82l.12-.17ZM8.93,26.65c.23,0,.64,0,.69-.07.23-.49.41-.34.66,0a.57.57,0,0,0,.31.15s.13-.14.13-.15a9.65,9.65,0,0,0-.84-.72c-.06,0-.28,0-.36.09S9.19,26.31,8.93,26.65Zm95.14-14.77,1.55-1.1a1.37,1.37,0,0,0-.23-.1L104.3,11C103.86,11.11,103.82,11.36,104.07,11.88Zm23.14,17.86.39-2.36A1.94,1.94,0,0,0,127.21,29.74Zm24.13-9.47.2.81.17,0a6.83,6.83,0,0,1,.11-.79c.06-.28.07-.55-.28-.58-.17,0-.35.14-.53.22ZM68.67,9.66v.25c.44,0,.88,0,1.32,0,.08,0,.2-.23.19-.34a.43.43,0,0,0-.3-.23C69.47,9.42,69.07,9.55,68.67,9.66ZM173.82,9.1l-.22.22-.93.28c-.06,0-.09.14-.13.21s.16.14.25.15a3.05,3.05,0,0,0,.8,0A.63.63,0,0,0,174,9.6C174,9.46,173.88,9.27,173.82,9.1ZM10.1,23.07l-.51.32a4.08,4.08,0,0,0,.62.56s.27-.27.41-.41ZM124.39,79.42c.35-.21.38-.53.22-1.48C124.16,78,124.16,78,124.39,79.42ZM7.49,89.23l-.55.4c.15.16.29.43.45.45s.35-.24.45-.42S7.64,89.41,7.49,89.23ZM153,17.27l-.82.53c.15.12.33.37.46.35C153,18.09,153.15,17.84,153,17.27ZM9.33,29.71l.11-.24A5,5,0,0,0,8.78,29a.42.42,0,0,0-.35.14c0,.13.05.35.15.39A4.56,4.56,0,0,0,9.33,29.71ZM70.9,9.57l.49-.44c-.15-.13-.33-.4-.43-.37s-.32.28-.47.43Zm103.79,0,.49-.45c-.13-.13-.31-.38-.39-.35a1.77,1.77,0,0,0-.51.41Zm-62.12.55,1.08.19C113.19,9.63,113.09,9.61,112.57,10.13ZM9.07,27.28a9,9,0,0,0,.65.72c.08.07.25.05.37.07s0-.29,0-.32C9.79,27.59,9.49,27.47,9.07,27.28Zm117.65,4,.24,0a6.17,6.17,0,0,0,.07-.74s-.2,0-.31-.05ZM144.53,9.2l.06-.26-.66-.22-.07.38Zm-38.84.1.06.26.59-.08-.07-.33Zm36.55,0,.06.16.88-.36C142.6,8.74,142.45,9.09,142.24,9.3ZM9.13,24.51c0,.53.22.6.85.4Zm140.44.36.3.07.12-.7-.26,0Z"/><path class="cls-1" d="M210,15c-.42-.13-.71-.26-.54-.74,0-.08-.15-.32-.17-.31-.19.07-.51.17-.52.29a1.73,1.73,0,0,1-1.26,1.56s0,.09-.08.18a1.23,1.23,0,0,1,.38.19c.08.09.08.24.12.37a2.36,2.36,0,0,1-.38,0c-.08,0-.12-.16-.2-.18a2.15,2.15,0,0,0-.81-.15c-.08,0-.1.43-.18.76l-.9.18,0,.18a1.21,1.21,0,0,1,1.2.87c.06.16.44.2.68.27.06,0,.22-.12.22-.18a.67.67,0,0,0-.14-.43,2.24,2.24,0,0,0-.56-.26c.09-.36.28-.43.6-.3a1.46,1.46,0,0,0,.54.12c.31,0,.61-.06.91-.09l.13.22c-.41.73-.83,1.45-1.25,2.17-.25.44-.51.87-.75,1.3s-.57,1-.81,1.59-.29.9-.49,1.33c-.39.79-.87,1.54-1.21,2.36s-.51,1.66-.81,2.48-.58,1.44-.91,2.15c-.18.4-.29.4-1.14.25.28-1,.36-1,.92-.73,0,0,.06-.08,0-.09a1.64,1.64,0,0,1,0-1.91,6.36,6.36,0,0,0,.44-1,10,10,0,0,1,.84-1.74c.35-.48.23-.81-.09-1.34a6.8,6.8,0,0,0-.59,1c-.18.56-.41.91-1.1.51L202,26a4.71,4.71,0,0,0,.25.75c.2.37.17.6-.28.74a6.81,6.81,0,0,0-.79.35c.18.11.41.18.5.34a.75.75,0,0,1,0,.59.5.5,0,0,1-.43.27c-.45-.05-.65.2-.88.63a1.78,1.78,0,0,1,.53,0,2.69,2.69,0,0,1,.49.34,2.11,2.11,0,0,1-.54.34,1.74,1.74,0,0,1-.59-.06l-.09.18.91.66-.84.27.5.6-1,.26-.06.17c.23.16.44.41.7.46s.45-.23.57-.53a1.36,1.36,0,0,1,.56-.58.62.62,0,0,1,.55,0c.09.05.11.31.11.48a1.19,1.19,0,0,1-.1.53,6.3,6.3,0,0,1-.45.8c-.28.46-.53,0-.79,0h-2.05c1.07.91,1.07.91,1.63.25.79.35.84.48.52,1.27-.62,1.47-1.26,2.92-1.82,4.41-.44,1.19-.77,2.42-1.15,3.62a17.88,17.88,0,0,0-.73,2.29c-.31,1.74-1.11,3.33-1.24,5.13a34.5,34.5,0,0,1-.73,3.86c-.14.8-.22,1.62-.32,2.43-.06.55-.11,1.11-.15,1.66-.1,1.29-.23,2.57-.28,3.86-.05,1,0,2.1,0,3.14s0,1.86,0,2.79.09,1.73.15,2.6.1,1.85.21,2.76a13.87,13.87,0,0,0,.36,1.41c.25,1,.45,2.07.75,3.08a6,6,0,0,0,.77,1.43c.09.14.34.19.51.29s.68.33.53.82c0,.07.09.22.18.28.58.44,1.16.88,1.75,1.31a1.36,1.36,0,0,0,1.5.18c.79-.47,1.53-1,2.28-1.58a.63.63,0,0,0,.24-.36c.13-.84.83-1.3,1.27-1.94s.84-1.4,1.31-2.07c.91-1.31,1.87-2.57,2.78-3.88.29-.41.45-.91.73-1.33.61-1,1.26-1.87,1.88-2.81.2-.3.38-.62.55-.94.78-1.45,1.48-3,2.34-4.35a6,6,0,0,1,3.4-2.43.48.48,0,0,1,.31,0c.48.16.7,0,.63-.47a29.31,29.31,0,0,1,.16-5.13c0-.8,0-1.6,0-2.4a.63.63,0,0,0-.63-.72,6.52,6.52,0,0,1-1-.36,4.34,4.34,0,0,0-.65-.25,1.61,1.61,0,0,1-1.34-1.58c0-.3-.37-.57-.57-.85l.6-1.09c-.43-.62-.83-1.1-1.13-1.64a1.14,1.14,0,0,1,.6-1.67.56.56,0,0,0,.38-.63,2,2,0,0,1,1-1.61c.73-.61,1.46-1.22,2.18-1.84a18.26,18.26,0,0,0,1.44-1.34,2.64,2.64,0,0,0,.71-1.12c.25-1.26.4-2.55.55-3.83.21-1.86.36-3.73.58-5.59.11-.95.32-1.9.48-2.85a.76.76,0,0,0,0-.21,10.34,10.34,0,0,1,.63-3.53c.54-2.28,1.24-4.52,1.83-6.79a16.93,16.93,0,0,0,.55-2.73,14.79,14.79,0,0,1,1.26-4.17,36.18,36.18,0,0,1,1.59-3.33,8.23,8.23,0,0,1,1-1.45c.07-.1.3-.1.45-.09a2.52,2.52,0,0,1,.51.16c-.06-.27-.15-.44-.12-.57a2.9,2.9,0,0,1,.29-.81,1.71,1.71,0,0,1,.45-.48,2.27,2.27,0,0,1,.62-.4.59.59,0,0,1,.5.09c.08.08,0,.31,0,.54l-.5-.2c-.21.34.05.94-.69,1L231,3a3.54,3.54,0,0,0,.55.18c.17.05.36.05.53.1.34.08.71.26.65-.37,0-.09.16-.19.36-.42,0,.29.09.46.11.64s0,.33,0,.49-.21.69.38.69,1.15-.36,1-.76c-.24-.61.17-1,.35-1.39a4.46,4.46,0,0,1,.67-1c.1-.13.32-.17.56-.28V5l.09,0,.55-.88h.12a3.22,3.22,0,0,1,0,.69,16.09,16.09,0,0,0-.4,1.8c0,.28.24.6.41.89,0,.07.18.08.38.15l-.51.24c-.31.16-.5.33-.28.73a.65.65,0,0,1-.23,1c-.31.21-.59.5-.25,1,.07.1-.1.46-.26.6a1,1,0,0,0-.4,1.07l.63-.11c-.28.45-.54.82-.76,1.21-.08.14-.16.37-.1.48.22.39,0,.69-.14,1-.07.13-.18.33-.13.42a.77.77,0,0,1-.3,1.16,1.08,1.08,0,0,0-.25.32c.56.37.43.71,0,1.09-.14.13-.15.41-.21.63,0,0,0,.07,0,.1-.21.61-.43,1.21-.63,1.82-.06.19-.05.4-.09.59s-.07.5-.21.64A1,1,0,0,0,233,22.8c.1.23-.09.6-.21.89s-.25.29-.41.47l.38.23c.32.16.27.33,0,.53a1.73,1.73,0,0,0-.46,1.79.71.71,0,0,0,.68.11,11.33,11.33,0,0,0,2.62-2.27c.38-.52.92-.92,1.34-1.41.66-.76,1.28-1.54,1.91-2.32s1.28-1.63,1.94-2.42a9.51,9.51,0,0,1,.74-.67.84.84,0,0,0,.2-.29,3.36,3.36,0,0,1,1.45-2,2.16,2.16,0,0,0,.5-.5c.1-.11.15-.27.27-.34a24.93,24.93,0,0,0,3.61-3.43,23.6,23.6,0,0,1,1.77-1.7,25.32,25.32,0,0,1,2.45-1.62,1.3,1.3,0,0,1,.68-.14c.1,0,.28.14.28.22a.51.51,0,0,1-.17.39c-.47.31-1,.57-1.44.87a.41.41,0,0,0-.09.38c0,.05.23.13.32.1.5-.2,1-.42,1.48-.64.21-.1.43-.19.63-.31s.44-.3.65-.45.35-.36.55-.4a1.33,1.33,0,0,1,.89.06c.3.21.31.58.17,1a1.91,1.91,0,0,1-.81,1.18c-.07,0-.06.24-.09.36l.35,0,0,0,.69-.32a2.76,2.76,0,0,0-.11.69,4.84,4.84,0,0,0,.24.89,5.06,5.06,0,0,1,.07.81.7.7,0,0,1-.26.46c-.44.39-.45.6,0,1-.05.07-.08.18-.15.2a2.86,2.86,0,0,0-1.27,1.21c-.34.52-.78,1-1.09,1.53s.35.31.5.55c-.15.57-.48.39-.92.07-.44.63-.84,1.26-1.3,1.85s-.78.88-1.18,1.31a19.53,19.53,0,0,0-2.94,3.18c-.64,1.08-1.71,1.79-2.2,3a8.08,8.08,0,0,1-1.56,1.84l-1.13,1.26a18.71,18.71,0,0,1-1.75,1.92,6.21,6.21,0,0,0-1.56,1.83.2.2,0,0,1-.09.07c-1,.19-1.4,1.2-2.13,1.77A20.18,20.18,0,0,0,235.48,37c-.17.17-.28.41-.44.6a8.35,8.35,0,0,1-.59.6c-.28.26-.59.51-.86.78a7,7,0,0,0-.58.64l-1.11,1.34a.83.83,0,0,1,.42.51.94.94,0,0,1-.28.1c-.7,0-.95.25-1.1,1-.08.35-.31.66-.42,1-.16.54.08.82.63.87a3.4,3.4,0,0,1,1,.27,22.35,22.35,0,0,0,4.18,1.09,6.39,6.39,0,0,1,1,.55,1.76,1.76,0,0,0,.76.28,5.2,5.2,0,0,1,2.39.48.68.68,0,0,0,.2.07c1,.23,2.06.41,3.07.7a14.08,14.08,0,0,1,2.43,1A17.54,17.54,0,0,0,250.45,50a20.2,20.2,0,0,1,2.7.87c1,.38,2.08.81,3.12,1.24a3.5,3.5,0,0,1,1.12.63c.87.91,2.09,1.13,3.14,1.68.52.28,1.31,1.21,1.18,1.77a2.38,2.38,0,0,1-2.82,1.34,5.42,5.42,0,0,0-3.19-.46,3.14,3.14,0,0,1-1.07-.13c-1.14-.14-2.27-.33-3.41-.37s-2.5.15-3.75.08a17.21,17.21,0,0,1-3.84-.39c-1.2-.33-2.47-.41-3.71-.63-.89-.16-1.78-.38-2.68-.53a13.13,13.13,0,0,1-1.67-.2,4.37,4.37,0,0,0-1.73-.23,3.13,3.13,0,0,1-1.59-.46,4.46,4.46,0,0,0-2.25-.26.65.65,0,0,0-.43.41c-.08.81-.1,1.62-.15,2.43,0,0,.05.12,0,.16-.39.64,0,1.32-.07,2s0,1.38,0,2.08a1.1,1.1,0,0,1-.07.36c0,.11-.13.2-.13.3,0,.56.06,1.12,0,1.67s-.19,1.09-.26,1.64c0,.3,0,.63,0,.93-.16.73.08,1.5-.28,2.21a1.61,1.61,0,0,0-.15,1,10.39,10.39,0,0,1,0,2.84c0,.94.13,1.9.17,2.85a11,11,0,0,1,0,1.72c0,.21-.26.41-.41.63,1.13.76,0,1.07-.37,1.49,0,.09,0,.11.05.12.7.47.8.55.37,1.26a2,2,0,0,0-.1,1.5,1,1,0,0,1-.23.75,3.37,3.37,0,0,0-.24,1.34,4.56,4.56,0,0,0,0,.64c0,.39,0,.79,0,1.18a6.39,6.39,0,0,1-.2.84c0,.17-.15.39-.09.52a.56.56,0,0,1-.12.73c-.06.07-.11.24-.07.3.47.63,0,1.17-.13,1.74,0,.15,0,.38.06.46.32.28.2.51,0,.74s-.44.54-.08.89a.42.42,0,0,1,0,.41.74.74,0,0,1-.54.1,2,2,0,0,1-.59-.33,5.15,5.15,0,0,0-.17,1.33c.12.87-.55,1.17-1.06,1.51a14.45,14.45,0,0,1-1.93,1,.86.86,0,0,1-1.18-.47c-.17-.36-.37-.71-.55-1.06-.05-.1-.14-.2-.14-.29.07-1.41-.91-2.56-1-3.94,0-1.09-.13-2.17-.19-3.26,0-.4,0-.8,0-1.2,0-.74,0-1.49-.08-2.23s-.25-1.35-.36-2c-.07-.45-.09-.91-.15-1.36s-.19-1.15-.24-1.73c-.1-1-.19-2-.22-3,0-1.17,0-2.33,0-3.49,0-2,.07-4,.09-6,0-.41,0-.83-.06-1.39-.22.2-.35.27-.4.38-.46.86-.88,1.73-1.34,2.59-.32.59-.68,1.17-1,1.74a3,3,0,0,0-.61,1.59,4.76,4.76,0,0,1-.61,1.6c-.32.74-.68,1.47-1,2.21l-1,2.1-.44-.63a7.45,7.45,0,0,0-.58.53.75.75,0,0,0,0,1.07c.22-.27.39-.5.58-.7a1.85,1.85,0,0,1,.37-.25c0,.17.16.36.11.48-.17.38-.41.73-.6,1.1a9.4,9.4,0,0,0-.88,1.73A6.59,6.59,0,0,1,209.45,83a.45.45,0,0,0-.14.34c.12.82-.51,1.24-.93,1.77a8.85,8.85,0,0,1-.93,1.17c-.81.7-1.46,1.63-2.6,1.89-.25,0-.46.28-.7.41-.45.24-.92.45-1.36.72-.24.14-.42.37-.64.48a4.48,4.48,0,0,1-.84.31c-.53.09-1.07.12-1.6.19-.87.12-1.74-.56-2.62,0-.1.08-.42-.09-.61-.2-.49-.29-1-.59-1.45-.93a23.43,23.43,0,0,1-2-1.53c-.67-.58-1.2-1.32-1.88-1.88A16,16,0,0,1,188,81.89c-.33-.49-.7-1-1-1.47a4.8,4.8,0,0,1-.24-.94c-.23-.86-.49-1.7-.69-2.56s-.38-1.77-.54-2.66c-.2-1.14-.42-2.28-.57-3.43-.18-1.43-.32-2.85-.41-4.28-.05-.83.05-1.68.07-2.51,0-.56,0-1.12,0-1.68.07-.81.2-1.62.28-2.44.1-1.07.13-2.14.27-3.21.17-1.33.41-2.66.62-4,.12-.76.25-1.51.36-2.26s.19-1.7.33-2.55a11.12,11.12,0,0,1,.33-1.26c.22-.84.43-1.69.64-2.53,0-.11,0-.22.07-.32.3-.95.61-1.9.91-2.84.05-.14.13-.26.18-.4.16-.47.31-1,.48-1.42.26-.72.53-1.43.82-2.14q.88-2.13,1.8-4.26c.09-.21.25-.4.36-.61.21-.43.41-.88.61-1.32a2.23,2.23,0,0,1,.37-.72c.81-.74.9-1.8,1.33-2.71s.73-2,1.16-2.94A29.26,29.26,0,0,1,197,21.67a24,24,0,0,1,2.21-3.59,18.4,18.4,0,0,0,1.09-1.83c.72-1.07,1.49-2.11,2.24-3.15a27.4,27.4,0,0,1,1.83-2.42c.76-.84,1.64-1.58,2.48-2.35a1.38,1.38,0,0,1,.47-.2,1.48,1.48,0,0,0,.13.39c.09.13.21.3.35.33a.46.46,0,0,0,.41-.16c.57-.94,1.69-1.2,2.43-1.93.07-.07.27,0,.41,0,.51,0,1,0,1.53.07a9.22,9.22,0,0,1,1.4.14c1.54.35,2.81,1,3.27,2.71.35,1.36.89,2.68,1.34,4a2,2,0,0,1,0,.43c0,.25.05.5.09.74a3.54,3.54,0,0,0,.37,1.63c-.42.62,0,1.3-.14,1.95a13.33,13.33,0,0,0-.25,2,1.91,1.91,0,0,0,.13.6c-.24.93-1.13,1.58-.77,2.64a.69.69,0,0,1-.24.58c-.52.42-.48,1-.55,1.56a13.69,13.69,0,0,1-.33,1.67c-.14.48-.32,1-.51,1.43-.49,1.21-1,2.42-1.51,3.63-.34.83-.63,1.7-1,2.51-.61,1.2-1.31,2.35-2,3.52-.27.47-.52,1-.82,1.42a2.22,2.22,0,0,1-.5.43c-.39-.85,0-1.53.18-2.24s.4-1.73.6-2.6l.78-3.34A6.45,6.45,0,0,0,212.4,31c0-1.2,0-2.4,0-3.6q0-2.23-.12-4.47c-.08-2.13-.18-4.26-.27-6.39a.82.82,0,0,0-.06-.27c-.26-.59-.52-1.19-.81-1.78-.07-.14-.25-.32-.37-.31a.79.79,0,0,0-.46.3A3.32,3.32,0,0,0,210,15Zm-2.74-1.28.14.22,1.92-.64c-.11-.41-.24-.57-.57-.4s-.42.13-.6.23S207.53,13.53,207.23,13.73Zm-13.5,40.64.63-.8c.28-.36.1-.54-.23-.68C193.34,53.73,193.34,53.73,193.73,54.37Zm1.35-7.65c.14.2.2.36.32.43s.23-.11.31-.21a3.29,3.29,0,0,0,.44-.68.46.46,0,0,0,0-.38c0-.05-.27-.05-.33,0C195.54,46.14,195.33,46.42,195.08,46.72ZM199.9,27.4c-.18.42-.32.71-.43,1,0,.11-.05.31,0,.36a.42.42,0,0,0,.38,0C200.29,28.59,200.33,28.16,199.9,27.4Zm-5.45,22.66a2.89,2.89,0,0,0-.29.66c0,.15.05.41.15.46a1.06,1.06,0,0,0,.61,0,.67.67,0,0,0,0-.47A3.86,3.86,0,0,0,194.45,50.06ZM209.9,80.4a1.55,1.55,0,0,0-.89,1.2c0,.08.12.21.14.2a.49.49,0,0,0,.28-.19C209.6,81.24,209.73,80.84,209.9,80.4ZM195.53,50.25l-.72-1.18a1,1,0,0,0,.14,1.17C195,50.31,195.25,50.25,195.53,50.25Zm8.91-27.32a6.18,6.18,0,0,0-.39.76.58.58,0,0,0,.08.4s.22.06.23,0a2.57,2.57,0,0,0,.34-.71C204.73,23.3,204.56,23.14,204.44,22.93Zm-10.11,32a.91.91,0,0,0-1,.29s.06.27.13.29C193.9,55.6,194.07,55.28,194.33,54.9Zm3.46-21.59c-.46.06-.48.4-.51.71,0,0,.19.18.24.16C197.94,34,197.84,33.67,197.79,33.31Zm1.35,3.38c.12-.69-.21-1-.73-.73ZM207,14.24l-.33.82c.11,0,.26.1.33,0C207.28,14.92,207.28,14.66,207,14.24ZM195.26,47.72l-.3.11.37.91.23-.08Zm3.93-12.31.27-.16a1.64,1.64,0,0,0-.27-.49c-.06-.06-.27.05-.42.09Zm-5,22.29.16-.19c-.13-.14-.24-.33-.4-.4s-.29.07-.43.12v.16ZM198.82,37l-.29-.09-.23.77c.09,0,.26.05.27,0C198.67,37.44,198.74,37.2,198.82,37Zm11.91,42.22-.15-.12c-.31.18-.63.36-.56.77l.17.12ZM194.67,52.47l.16-.25a3.91,3.91,0,0,0-.49-.34s-.15.15-.23.23Zm36.7-48.36.25.18.41-.47c-.1-.06-.25-.18-.28-.16A5.63,5.63,0,0,0,231.37,4.11Zm-37.89,52-.41.75C193.69,56.67,193.76,56.54,193.48,56.09Z"/><path d="M177.93,8.59a3,3,0,0,1-.37.48.43.43,0,0,1-.39.08,7.56,7.56,0,0,1-.93-.58c-.06,0-.1-.2-.07-.23s.25-.29.4-.31A1.19,1.19,0,0,1,177.93,8.59Z"/><path d="M72.24,8.32A5.33,5.33,0,0,1,73,8a.8.8,0,0,1,1,.41c.07.15-.11.45-.24.63s-.31.1-.41,0-.27-.31-.44-.4a2.34,2.34,0,0,0-.55-.15Z"/><path d="M110.72,6.6c-.33,1-1,.37-1.52.43C109.47,6.5,109.58,6.47,110.72,6.6Z"/><path d="M209.6,20a5.89,5.89,0,0,1-.69-.47.4.4,0,0,1-.1-.38.48.48,0,0,1,.38-.13C209.73,19,209.91,19.41,209.6,20Z"/><path d="M208.58,20.12c.4.12.8.13.71.59a.56.56,0,0,1-.45.29C208.35,20.88,208.59,20.5,208.58,20.12Z"/><path d="M151.67,7.8l-.79.29-.08-.37.81-.15Z"/><path class="cls-2" d="M53.72,72.86c-.06-.5-.11-.89-.15-1.28,0-.24,0-.47,0-.71s-.15-.52-.06-.69c.23-.4.44-.72-.09-1a2.51,2.51,0,0,1,.16-.43c.06-.13.22-.3.18-.39a4.63,4.63,0,0,1,.1-2.31,10.51,10.51,0,0,0-.14-2,2.78,2.78,0,0,1-.09-.69,9.37,9.37,0,0,0,.25-1.93c-.06-.54-.3-1,0-1.55-.46-.49,0-.74.22-1.11.11-.19,0-.53-.11-.79.38-.72-.14-1.39-.19-2.08,0-.11-.1-.27,0-.34.55-.74.11-1.58.24-2.36a2.53,2.53,0,0,1,.08-.63c.17-.35.4-.66.15-1.06a.14.14,0,0,1,0-.11c.49-.74.25-1.59.4-2.38a2,2,0,0,1,.63-1.15c.54-.43.52-1.07.85-1.6l-.4-.26,1-2.91c-.57-.13-.66-.48-.47-1s0-.53-.62-.36c-.13-.38-.24-.68.37-.74a2.77,2.77,0,0,0,.82-.44c-.21-.11-.4-.15-.44-.25s-.26-.61-.16-.74a1.11,1.11,0,0,0,.12-1.18.86.86,0,0,1,.24-1,5.06,5.06,0,0,0,.64-1.46c.23-.61.44-1.23.7-2l2.56,5.83h.19a2.26,2.26,0,0,0,.15-.41c.22-1.63.51-3.24.62-4.88A20,20,0,0,0,61.51,30a21.09,21.09,0,0,1-.13-2.76,9.17,9.17,0,0,1,.06-1.57,6.57,6.57,0,0,1,.32-1.13c.22-.71.42-1.42.68-2.11a11.31,11.31,0,0,1,.64-1.25c.16-.31.33-.6.49-.91,0-.06,0-.15.07-.2.6-.84,1.2-1.66,1.79-2.5a3.62,3.62,0,0,1,1.42-1.29A4.22,4.22,0,0,1,69.66,16,1.65,1.65,0,0,0,70,16c1.59.05,2.41,1.13,3.14,2.34a20,20,0,0,1,1.82,4.74A5.94,5.94,0,0,1,75,24.44c.06,1.36.16,2.72.17,4.08,0,.84-.13,1.67-.2,2.5-.11,1.38-.19,2.75-.34,4.12-.13,1.18-.35,2.34-.51,3.51-.06.39-.07.79-.1,1.19a1.27,1.27,0,0,1,0,.27c-.25,1.39-.52,2.78-.77,4.17-.12.68-.18,1.37-.31,2a43.49,43.49,0,0,1-1.32,6.07C71.11,54,70.52,55.56,70,57.14a36.87,36.87,0,0,1-2.42,5.91c-1,1.85-1.89,3.8-2.85,5.7a20.19,20.19,0,0,1-1.47,2.71c-.92,1.32-2,2.56-3,3.82-1.24,1.56-2.47,3.14-3.77,4.64a2.93,2.93,0,0,1-1.35.68c-.34.11-.73-.4-.71-.93a12.18,12.18,0,0,0-.19-1.42,4.32,4.32,0,0,0-.2-1.56c0-.13.16-.34.15-.51a.85.85,0,0,0-.23-.56c-.39-.29-.48-.5-.14-.87s.56-.69,0-1.07C53.63,73.58,53.73,73.1,53.72,72.86Z"/><path class="cls-2" d="M154.25,12.2c0,.29-.05.58-.05.88,0,.48,0,1,0,1.46a6.93,6.93,0,0,0,.16.91l0,.1c.12.51-1,1.58-1.41,1.35-.21-.11-.27-.51-.45-.89a1.94,1.94,0,0,0,.6.09c.19,0,.44-.09.52-.22s0-.37-.1-.53-.33-.43-.12-.78c.09-.15-.11-.48-.2-.78.3-.53,0-1-.77-1.06a5.82,5.82,0,0,1-.59,0c-.16,0-.42-.12-.42-.19,0-.47-.53-.85-.22-1.38.09-.14,0-.38,0-.58a.51.51,0,0,1,.16-.4,2.16,2.16,0,0,0,.25.58A1.15,1.15,0,0,0,153,11c.26-.15.39-.12.55.16a8.74,8.74,0,0,0,.81,1Zm-1.93.19.11-.15c-.07-.16-.13-.33-.21-.49-.31-.56-.61-.35-.67.1C151.53,12,152.05,12.21,152.32,12.39Z"/><path class="cls-2" d="M115.94,9.58c.19.31.38.63.59.94s.31.39.45.59.17.28.13.37a.41.41,0,0,1-.35.16,3.17,3.17,0,0,1-1.16-.26,1,1,0,0,1-.24-.77,4.38,4.38,0,0,1,.39-.93Z"/><path class="cls-2" d="M145.43,30.94a25.39,25.39,0,0,1,2.78-4.14c-.32.72-.38,1.53-1,2.13A9.46,9.46,0,0,0,146,30.62c-.11.16-.22.3-.34.45Z"/><path class="cls-2" d="M105.2,44c.42-.23.55,0,.62.38a6.37,6.37,0,0,1-3.41.36c.43-.27.66-.71,1.08-.23,0,0,.32-.05.42-.15"/><path class="cls-2" d="M56.44,28.73a1.83,1.83,0,0,1,.69,1.4,5.09,5.09,0,0,0,0,.55c0,.32-.05.68-.42.59-.18-.05-.46-.6-.38-.71.41-.61,0-1.25.17-1.85Z"/><path class="cls-2" d="M25.09,8.5c-.34.75-.7.88-1.67.62l-.57.83c-.28-.61-.22-1,.3-1.17a9.08,9.08,0,0,1,1.4-.19Z"/><path class="cls-2" d="M160.46,28.67a3.57,3.57,0,0,1,.4,2.3c0,.14-.24.23-.36.35-.15-.23-.48-.59-.42-.67.36-.5.07-1,.2-1.56C160.31,29,160.36,28.9,160.46,28.67Z"/><path class="cls-2" d="M145.79,8.2a6.63,6.63,0,0,1-.76.11c-.69,0-1.37,0-2.05,0a1.19,1.19,0,0,1-.46-.18,2.31,2.31,0,0,1,.34-.42.34.34,0,0,1,.31,0c.66.45,1.37.2,2.07.16a2.84,2.84,0,0,1,.57.1Z"/><path class="cls-2" d="M103.81,10.38c-.4.31-.59.81-1.17.75-.07,0-.22.19-.24.31,0,.29-.15.5-.47.48a1.88,1.88,0,0,1-.41-.19c.11-.21.17-.51.34-.59.42-.19.87-.3,1-.83a2.69,2.69,0,0,1,.65.06Z"/><path class="cls-2" d="M11.28,22.47c-.39,0-.9.15-1.15,0s-.16-.71-.23-1.08l.13-.07,1.32.93Z"/><path class="cls-2" d="M139.88,8.25l1.63-.08-.12.17c.06.28.13.55.17.82a1.58,1.58,0,0,1,0,.38c-.12,0-.28,0-.35-.12s-.14-.36-.26-.47A11.94,11.94,0,0,0,139.88,8.25Z"/><path class="cls-2" d="M8.93,26.65c.26-.34.41-.56.59-.75s.3-.14.36-.09a9.65,9.65,0,0,1,.84.72s-.1.16-.13.15a.57.57,0,0,1-.31-.15c-.25-.29-.43-.44-.66,0C9.57,26.69,9.16,26.63,8.93,26.65Z"/><path class="cls-2" d="M104.07,11.88c-.25-.52-.21-.77.23-.88l1.09-.32a1.37,1.37,0,0,1,.23.1Z"/><path class="cls-2" d="M127.21,29.74a1.94,1.94,0,0,1,.39-2.36Z"/><path class="cls-2" d="M151.34,20.27,151,19.9c.18-.08.36-.24.53-.22.35,0,.34.3.28.58a6.83,6.83,0,0,0-.11.79l-.17,0Z"/><path class="cls-2" d="M68.67,9.66c.4-.11.8-.24,1.22-.33a.43.43,0,0,1,.3.23c0,.11-.11.33-.19.34-.44,0-.88,0-1.32,0Z"/><path class="cls-2" d="M173.82,9.1c.06.17.2.36.16.5a.63.63,0,0,1-.39.34,3.05,3.05,0,0,1-.8,0c-.09,0-.17-.1-.25-.15s.07-.19.13-.21l.93-.28Z"/><path class="cls-2" d="M10.1,23.07l.52.47c-.14.14-.38.43-.41.41a4.08,4.08,0,0,1-.62-.56Z"/><path class="cls-2" d="M124.39,79.42c-.23-1.38-.23-1.38.22-1.48C124.77,78.89,124.74,79.21,124.39,79.42Z"/><path class="cls-2" d="M150.77,22.67c.11-.26.3-.49,0-.8-.06-.07.09-.36.2-.49s.25,0,.39,0c0,.15-.07.31-.09.47s-.07.45-.12.77l-.44,0Z"/><path class="cls-2" d="M7.49,89.23c.15.18.38.38.35.43s-.31.44-.45.42-.3-.29-.45-.45Z"/><path class="cls-2" d="M153,17.27c.15.57,0,.82-.36.88-.13,0-.31-.23-.46-.35Z"/><path class="cls-2" d="M9.33,29.71a4.56,4.56,0,0,1-.75-.18c-.1,0-.17-.26-.15-.39A.42.42,0,0,1,8.78,29a5,5,0,0,1,.66.47Z"/><path class="cls-2" d="M70.9,9.57l-.41-.38c.15-.15.29-.38.47-.43s.28.24.43.37Z"/><path class="cls-2" d="M174.69,9.58l-.41-.39a1.77,1.77,0,0,1,.51-.41c.08,0,.26.22.39.35Z"/><path class="cls-2" d="M112.57,10.13c.52-.52.62-.5,1.08.19Z"/><path class="cls-2" d="M9.07,27.28c.42.19.72.31,1,.47.05,0,0,.21,0,.32s-.29,0-.37-.07A9,9,0,0,1,9.07,27.28Z"/><path class="cls-2" d="M126.72,31.33v-.77c.11,0,.32,0,.31.05a6.17,6.17,0,0,1-.07.74Z"/><path class="cls-2" d="M144.53,9.2l-.67-.1.07-.38.66.22Z"/><path class="cls-2" d="M150.76,22.66a1.68,1.68,0,0,1-.58,1.28l-.17-.1.76-1.17Z"/><path class="cls-2" d="M105.69,9.3l.58-.15.07.33-.59.08Z"/><path class="cls-2" d="M142.24,9.3c.21-.21.36-.56.94-.2l-.88.36Z"/><path class="cls-2" d="M9.13,24.51l.85.4C9.35,25.11,9.15,25,9.13,24.51Z"/><path class="cls-2" d="M149.57,24.87l.16-.68.26,0-.12.7Z"/><path class="cls-2" d="M207.23,17.6c.3-.19.58-.41.89-.59s.41-.13.6-.23.46,0,.57.4l-1.92.64Z"/><path class="cls-2" d="M193.73,58.24c-.39-.64-.39-.64.4-1.48.33.14.51.32.23.68Z"/><path class="cls-2" d="M195.08,50.59c.25-.3.46-.58.71-.83.06-.06.3-.06.33,0a.46.46,0,0,1,0,.38,3,3,0,0,1-.44.68c-.07.1-.26.24-.31.21S195.22,50.8,195.08,50.59Z"/><path class="cls-2" d="M199.9,31.27c.43.76.39,1.19,0,1.4a.43.43,0,0,1-.37,0c-.07-.06-.06-.26,0-.37C199.58,32,199.72,31.69,199.9,31.27Z"/><path class="cls-2" d="M194.45,53.94a3.46,3.46,0,0,1,.47.64c.07.13.05.46,0,.47a1.06,1.06,0,0,1-.61,0c-.1,0-.17-.31-.15-.45A3,3,0,0,1,194.45,53.94Z"/><path class="cls-2" d="M209.9,84.27c-.17.44-.3.84-.47,1.21a.49.49,0,0,1-.28.19s-.12-.12-.14-.2A1.55,1.55,0,0,1,209.9,84.27Z"/><path class="cls-2" d="M195.53,54.12c-.28,0-.52.06-.58,0a1,1,0,0,1-.14-1.17Z"/><path class="cls-2" d="M204.44,26.8c.12.21.29.37.26.48a2.57,2.57,0,0,1-.34.71s-.21,0-.23,0a.58.58,0,0,1-.08-.4A6.18,6.18,0,0,1,204.44,26.8Z"/><path class="cls-2" d="M194.33,58.77c-.26.38-.43.7-.86.58-.07,0-.16-.25-.13-.28A.9.9,0,0,1,194.33,58.77Z"/><path class="cls-2" d="M197.79,37.18c.05.36.15.7-.26.87-.06,0-.26-.11-.25-.16C197.31,37.58,197.33,37.24,197.79,37.18Z"/><path class="cls-2" d="M199.15,40.56l-.74-.73C198.94,39.59,199.26,39.87,199.15,40.56Z"/><path class="cls-2" d="M207,18.11c.29.42.29.68,0,.87-.07.05-.22,0-.33-.05Z"/><path class="cls-2" d="M195.27,51.59l.29.94-.23.08L195,51.7Z"/><path class="cls-2" d="M199.19,39.28l-.42-.56c.15,0,.36-.15.42-.09a1.55,1.55,0,0,1,.27.49Z"/><path class="cls-2" d="M194.15,61.57l-.68-.31V61.1c.14-.05.32-.17.43-.12a1.69,1.69,0,0,1,.4.4Z"/><path class="cls-2" d="M198.82,40.84c-.07.23-.15.48-.24.7,0,0-.19,0-.28,0l.23-.77Z"/><path class="cls-2" d="M210.74,83.06l-.55.77-.17-.12c-.07-.41.25-.59.56-.76Z"/><path class="cls-2" d="M194.67,56.34l-.56-.36c.08-.08.2-.24.23-.23a3.3,3.3,0,0,1,.49.34Z"/><path class="cls-2" d="M193.48,60c.28.45.21.58-.41.75Z"/><path d="M152.32,12.39c-.27-.18-.79-.4-.77-.54.06-.45.36-.66.67-.1.08.16.14.33.21.49Z"/></svg>